<?xml version="1.0" encoding="utf-8"?>
<!-- Generator: Adobe Illustrator 24.0.1, SVG Export Plug-In . SVG Version: 6.00 Build 0)  -->
<svg version="1.1" id="Layer_1" xmlns="http://www.w3.org/2000/svg" xmlns:xlink="http://www.w3.org/1999/xlink" x="0px" y="0px"
	 viewBox="0 0 937.5 937.5" style="enable-background:new 0 0 937.5 937.5;" xml:space="preserve">
<style type="text/css">
	.st0{fill:#1D1D1D;}
</style>
<g id="surface1">
	<path class="st0" d="M93.8,62.5v156.2H125V62.5c0-17.3,14-31.2,31.2-31.2h625c17.3,0,31.2,14,31.2,31.2h31.2
		c0-34.5-28-62.5-62.5-62.5h-625C121.7,0,93.8,28,93.8,62.5z"/>
	<path class="st0" d="M62.5,937.5h718.8c34.5,0,62.5-28,62.5-62.5v-62.5h-31.2V875c0,17.3-14,31.2-31.2,31.2S750,892.3,750,875
		v-46.9c0-8.6-7-15.6-15.6-15.6H125V500H93.8v312.5H15.6c-8.6,0-15.6,7-15.6,15.6V875C0,909.5,28,937.5,62.5,937.5z M31.2,843.8
		h687.5V875c0,11,2.9,21.8,8.4,31.2H62.5c-17.3,0-31.2-14-31.2-31.2V843.8z"/>
	<path class="st0" d="M15.6,468.8h312.5c8.6,0,15.6-7,15.6-15.6V265.6c0-8.6-7-15.6-15.6-15.6H15.6C7,250,0,257,0,265.6v187.5
		C0,461.8,7,468.8,15.6,468.8z M31.2,281.2h281.2v156.2H31.2V281.2z"/>
	<path class="st0" d="M98.3,317.1l-31.2,31.2c-6.1,6.1-6.1,16,0,22.1l31.2,31.2l22.1-22.1l-20.2-20.2l20.2-20.2L98.3,317.1z"/>
	<path class="st0" d="M245.4,317.1l-22.1,22.1l20.2,20.2l-20.2,20.2l22.1,22.1l31.2-31.2c6.1-6.1,6.1-16,0-22.1L245.4,317.1z"/>
	<path class="st0" d="M141.4,401.3l31.3-93.8l29.7,9.9l-31.3,93.8L141.4,401.3z"/>
	<path class="st0" d="M921.9,93.8H390.6c-8.6,0-15.6,7-15.6,15.6v312.5c0,8.6,7,15.6,15.6,15.6h531.2c8.6,0,15.6-7,15.6-15.6V109.4
		C937.5,100.7,930.5,93.8,921.9,93.8z M906.2,406.2h-500v-38L546.6,284l136.8,88.5c4.7,3,10.7,3.3,15.6,0.8l113.1-58.6l94.1,53.8
		V406.2z M906.2,332.5l-85.9-49.1c-4.6-2.6-10.2-2.7-14.9-0.3l-112.6,58.3l-137.3-88.8c-5-3.2-11.4-3.3-16.5-0.3l-132.6,79.5V125
		h500V332.5z"/>
	<path class="st0" d="M742.2,265.6c30.2,0,54.7-24.5,54.7-54.7s-24.5-54.7-54.7-54.7s-54.7,24.5-54.7,54.7S712,265.6,742.2,265.6z
		 M742.2,187.5c12.9,0,23.4,10.5,23.4,23.4s-10.5,23.4-23.4,23.4s-23.4-10.5-23.4-23.4S729.2,187.5,742.2,187.5z"/>
	<path class="st0" d="M156.2,515.6v187.5c0,8.6,7,15.6,15.6,15.6h390.6c8.6,0,15.6-7,15.6-15.6V515.6c0-8.6-7-15.6-15.6-15.6H171.9
		C163.2,500,156.2,507,156.2,515.6z M187.5,531.2h359.4v156.2H187.5V531.2z"/>
	<path class="st0" d="M218.8,562.5h62.5v31.2h-62.5V562.5z"/>
	<path class="st0" d="M312.5,562.5h140.6v31.2H312.5V562.5z"/>
	<path class="st0" d="M484.4,562.5h31.2v31.2h-31.2V562.5z"/>
	<path class="st0" d="M218.8,625h187.5v31.2H218.8V625z"/>
	<path class="st0" d="M437.5,625h78.1v31.2h-78.1V625z"/>
	<path class="st0" d="M156.2,62.5h31.2v31.2h-31.2V62.5z"/>
	<path class="st0" d="M218.8,62.5H250v31.2h-31.2V62.5z"/>
	<path class="st0" d="M281.2,62.5h31.2v31.2h-31.2V62.5z"/>
	<path class="st0" d="M156.2,125h187.5v31.2H156.2V125z"/>
	<path class="st0" d="M921.9,562.5H625c-8.6,0-15.6,7-15.6,15.6v187.5c0,8.6,7,15.6,15.6,15.6h296.9c8.6,0,15.6-7,15.6-15.6V578.1
		C937.5,569.5,930.5,562.5,921.9,562.5z M906.2,750H640.6V593.8h265.6V750z"/>
	<path class="st0" d="M671.9,625h31.2v31.2h-31.2V625z"/>
	<path class="st0" d="M671.9,687.5h31.2v31.2h-31.2V687.5z"/>
	<path class="st0" d="M734.4,625H875v31.2H734.4V625z"/>
	<path class="st0" d="M734.4,687.5H875v31.2H734.4V687.5z"/>
	<path class="st0" d="M812.5,468.8h31.2v62.5h-31.2V468.8z"/>
</g>
</svg>
