<?xml version="1.0" encoding="utf-8"?>
<!-- Generator: Adobe Illustrator 24.0.1, SVG Export Plug-In . SVG Version: 6.00 Build 0)  -->
<svg version="1.1" id="Capa_1" xmlns="http://www.w3.org/2000/svg" xmlns:xlink="http://www.w3.org/1999/xlink" x="0px" y="0px"
	 viewBox="0 0 60 60" style="enable-background:new 0 0 60 60;" xml:space="preserve">
<style type="text/css">
	.st0{fill:#1D1D1D;}
</style>
<g>
	<circle class="st0" cx="12.5" cy="6" r="1"/>
	<circle class="st0" cx="9.5" cy="9" r="1"/>
	<circle class="st0" cx="33.5" cy="9" r="1"/>
	<circle class="st0" cx="36.5" cy="6" r="1"/>
	<circle class="st0" cx="39.5" cy="9" r="1"/>
	<circle class="st0" cx="27.5" cy="15" r="1"/>
	<circle class="st0" cx="21.5" cy="15" r="1"/>
	<circle class="st0" cx="51.5" cy="15" r="1"/>
	<circle class="st0" cx="24.5" cy="18" r="1"/>
	<circle class="st0" cx="27.5" cy="21" r="1"/>
	<circle class="st0" cx="18.5" cy="18" r="1"/>
	<circle class="st0" cx="21.5" cy="21" r="1"/>
	<circle class="st0" cx="54.5" cy="18" r="1"/>
	<circle class="st0" cx="48.5" cy="18" r="1"/>
	<circle class="st0" cx="51.5" cy="21" r="1"/>
	<path class="st0" d="M59.5,12.1c0-0.2,0-0.3-0.1-0.4c0-0.1,0-0.2,0-0.3l-4.1-9C54.6,0.9,53.1,0,51.5,0h-8.2h-2h-9.8h-2h-9.8h-2H9.5
		C7.9,0,6.5,0.9,5.8,2.4l-4.1,8.8l-0.1,0.1c0,0.1,0,0.3,0,0.4c-0.1,0.2-0.1,0.3-0.1,0.5V19c0,1.4,0.4,2.7,1,3.9v7.4
		c-0.5,0.5-0.8,1.1-0.9,1.8c-0.1,0.6-0.1,1.2,0.1,1.8c0.1,0.3,0,0.7-0.2,1.1c-1,1.5-1.3,3.7-0.5,5.4c0.1,0.3,0.2,0.5,0.4,0.7
		c0.2,0.3,0.3,0.7,0.2,1.1c-0.1,0.2-0.1,0.4-0.1,0.6c-0.1,0.9,0.1,1.8,0.2,2.5c0.2,0.7,0.4,1.8,1.2,2.6c0.4,0.4,1,0.6,1.6,0.6V52
		H1.6l-0.5,0l-0.6,0.8L1.7,60h5.7h2h27.2h18h4V22.9c0.6-1.1,1-2.5,1-3.9V12.1z M56.8,21.9c0,0.1-0.1,0.1-0.1,0.2
		c-0.1,0.2-0.3,0.4-0.4,0.6c0,0,0,0,0,0c-0.2,0.2-0.3,0.4-0.5,0.5c0,0-0.1,0.1-0.1,0.1c-0.1,0.1-0.1,0.1-0.2,0.2
		c-0.2-0.3-0.5-0.6-0.9-0.6c-0.6,0-1,0.4-1,1c0,0.2,0.1,0.4,0.2,0.6c-0.1,0-0.1,0-0.2,0.1c-0.1,0-0.3,0.1-0.4,0.1
		c-0.1,0-0.2,0-0.3,0.1c-0.1,0-0.3,0.1-0.4,0.1c-0.1,0-0.2,0-0.2,0c-0.2,0-0.5,0-0.7,0c-0.8,0-1.5-0.2-2.2-0.4
		c0.1-0.2,0.2-0.4,0.2-0.6c0-0.6-0.4-1-1-1c-0.4,0-0.7,0.2-0.9,0.6c-0.6-0.5-1.1-1.1-1.4-1.8c0.2-0.2,0.3-0.4,0.3-0.7
		c0-0.5-0.4-0.9-0.9-1c-0.1-0.3-0.1-0.6-0.1-1v-3c0.6,0,1-0.4,1-1s-0.4-1-1-1v-1h0.2h11.8v1c-0.6,0-1,0.4-1,1s0.4,1,1,1v3
		c0,0.3,0,0.7-0.1,1c-0.5,0-0.9,0.5-0.9,1c0,0.3,0.1,0.6,0.3,0.7C56.8,21.8,56.8,21.8,56.8,21.9L56.8,21.9z M24.5,23
		c-0.6,0-1,0.4-1,1c0,0.5,0.4,0.9,0.9,1c-0.3,0-0.6,0.1-0.9,0.1c-3.3,0-6-2.7-6-6v-1v-5h12v6c0,2.8-1.9,5.1-4.5,5.8
		c0.3-0.2,0.5-0.5,0.5-0.8C25.5,23.4,25.1,23,24.5,23z M8.8,25c-0.1,0-0.2,0-0.2,0c-0.1,0-0.3-0.1-0.4-0.1c-0.1,0-0.2,0-0.3-0.1
		c-0.1,0-0.3-0.1-0.4-0.1c-0.1,0-0.2-0.1-0.3-0.1c-0.2-0.1-0.4-0.2-0.6-0.3c-0.1,0-0.2-0.1-0.3-0.2C6.3,24,6.2,24,6.1,23.9
		c-0.1-0.1-0.2-0.1-0.2-0.2c-0.1-0.1-0.3-0.2-0.4-0.3c0,0-0.1-0.1-0.1-0.1c-0.2-0.2-0.3-0.4-0.5-0.5c0,0,0,0,0,0
		c-0.2-0.2-0.3-0.4-0.4-0.6c0-0.1-0.1-0.1-0.1-0.2l0-0.1C3.8,21,3.5,20,3.5,19v-6h11.8h0.2v6c0,3.3-2.7,6-6,6C9.3,25,9.1,25,8.8,25z
		 M31.5,13h12v6c0,3.3-2.7,6-6,6s-6-2.7-6-6C31.5,19,31.5,13,31.5,13z M51.5,2c0.8,0,1.6,0.5,1.9,1.2L57,11H45.5h-0.2l-0.8-4.5
		L43.7,2H51.5z M31.5,2h1.8c-0.5,0.1-0.8,0.5-0.8,1c0,0.6,0.4,1,1,1s1-0.4,1-1c0-0.5-0.4-0.9-0.8-1h5.6c-0.5,0.1-0.8,0.5-0.8,1
		c0,0.6,0.4,1,1,1s1-0.4,1-1c0-0.5-0.4-0.9-0.8-1h2l0.5,3c-0.4,0.1-0.7,0.5-0.7,0.9c0,0.6,0.4,1,1,1c0,0,0,0,0.1,0l0.7,4.1H31.5V2z
		 M19.4,2h10.2v9H17.7l0.8-4.5L19.4,2z M6,6.8C6.1,6.9,6.3,7,6.5,7c0.6,0,1-0.4,1-1c0-0.5-0.3-0.8-0.7-0.9l0.8-1.8
		c0.3-0.6,0.9-1,1.5-1.2C8.8,2.2,8.5,2.6,8.5,3c0,0.6,0.4,1,1,1s1-0.4,1-1c0-0.5-0.4-0.9-0.8-1h5.6c-0.5,0.1-0.8,0.5-0.8,1
		c0,0.6,0.4,1,1,1c0.6,0,1-0.4,1-1c0-0.5-0.4-0.9-0.8-1h1.6l-0.8,4.5l-0.3,1.7C16,8.1,15.8,8,15.5,8c-0.6,0-1,0.4-1,1s0.4,1,1,1
		c0.1,0,0.3,0,0.4-0.1L15.7,11h-0.2H4L6,6.8z M3.7,44.8c-0.1-0.6-0.3-1.3-0.2-1.9c0-0.1,0-0.2,0.1-0.3c0.2-1,0-2-0.6-2.8
		c-0.1-0.1-0.1-0.2-0.2-0.3c-0.5-1-0.3-2.5,0.4-3.4c0.6-0.8,0.7-1.8,0.5-2.8c-0.1-0.3-0.1-0.6-0.1-0.9c0.1-0.4,0.3-0.7,0.5-1
		l0.1-0.1c0.1-0.1,0.2-0.1,0.3-0.2l0.9-0.7c0.1-0.1,0.2-0.1,0.3-0.2c0,0,0,0,0.1,0c0.2-0.1,0.4-0.1,0.6-0.1c0.1,0,0.2,0,0.3,0
		c0.4,0.1,0.7,0.2,1,0.3l0.2,0.2c0.1,0.1,0.2,0.2,0.3,0.3C8,31.1,8,31.2,8.1,31.3c0.2,0.3,0.2,0.7,0.1,1.1c-0.2,0.9,0,1.9,0.6,2.6
		C9,35.1,9,35.2,9.1,35.4c0,0.1,0,0.3,0,0.4c0,0.4-0.1,0.9-0.3,1.5v0c-0.2,0.5-0.4,0.9-0.7,1.2c-0.5,0.7-0.7,1.6-0.5,2.4
		c0.1,0.3,0.1,0.6,0.3,0.9c0.1,0.3,0.2,0.6,0.2,0.9c0,0.3,0,0.6-0.1,0.9c0,0.2-0.1,0.3-0.2,0.5c-0.1,0.3-0.3,0.6-0.5,0.8
		c0,0,0,0,0,0c-0.1,0.1-0.2,0.2-0.3,0.3c-0.4,0.4-0.8,0.6-1.1,0.8c0,0,0,0,0,0c-0.2,0.1-0.3,0.1-0.5,0.2c-0.4,0.1-0.8,0.2-1,0
		C3.9,46,3.8,45.3,3.7,44.8z M7.7,58H3.4l-0.7-4h1.8h3.8L7.7,58z M6.5,52v-4.1c0.1,0,0.1-0.1,0.2-0.1c0.6-0.3,1.1-0.6,1.5-1l0,0
		c0,0,0,0,0,0c0.2-0.2,0.4-0.4,0.5-0.5c0,0,0-0.1,0.1-0.1c0.1-0.2,0.2-0.3,0.4-0.5c0-0.1,0.1-0.1,0.1-0.2c0.1-0.1,0.2-0.3,0.2-0.4
		c0-0.1,0.1-0.1,0.1-0.2c0.1-0.2,0.2-0.4,0.2-0.6C10,44,10,43.7,10,43.5s0-0.5,0-0.8c0-0.5-0.2-1.1-0.4-1.6c-0.2-0.5-0.2-1,0-1.3
		c0.1-0.1,0.2-0.3,0.3-0.4c0.2-0.4,0.4-0.8,0.6-1.2c0.5-1.1,0.6-2.1,0.4-3c-0.1-0.5-0.3-1-0.7-1.4c-0.2-0.2-0.3-0.6-0.2-0.9
		c0.1-0.3,0.1-0.5,0.1-0.8c0-0.1,0-0.1,0-0.2c0-0.2-0.1-0.5-0.1-0.7c0,0,0-0.1,0-0.1h22.4v21H10.7H9.5L6.5,52L6.5,52z M38.5,58V31
		h14v27H38.5z M56.5,58h-2V29h-18v29H9.7l0.7-4h24.2V29H8.6c-0.5-0.4-1.2-0.6-1.9-0.7c-0.3,0-0.5,0-0.8,0c-0.1,0-0.1,0-0.2,0
		c-0.2,0-0.4,0-0.5,0.1c-0.1,0-0.1,0-0.2,0c-0.2,0.1-0.4,0.1-0.6,0.2v-3.3c0.6,0.5,1.2,0.8,1.9,1.1c0,0,0,0,0,0
		c0.2,0.1,0.4,0.2,0.7,0.2c0,0,0.1,0,0.1,0c0.2,0.1,0.4,0.1,0.6,0.2c0.1,0,0.1,0,0.2,0c0.2,0,0.4,0.1,0.6,0.1c0.1,0,0.1,0,0.2,0
		c0.3,0,0.5,0,0.8,0c0.3,0,0.7,0,1-0.1c0.1,0,0.2,0,0.3,0c0.2,0,0.5-0.1,0.7-0.2c0.1,0,0.2,0,0.2-0.1c0.3-0.1,0.6-0.2,0.9-0.3
		c0,0,0.1,0,0.1-0.1c0.2-0.1,0.5-0.2,0.7-0.4c0.1,0,0.2-0.1,0.2-0.1c0.2-0.1,0.4-0.3,0.6-0.4c0.1,0,0.1-0.1,0.2-0.1
		c0.2-0.2,0.5-0.4,0.7-0.6c0,0,0.1-0.1,0.1-0.2c0.2-0.2,0.3-0.4,0.5-0.6c0.1-0.1,0.1-0.1,0.2-0.2c0.2-0.2,0.3-0.4,0.4-0.7
		c0,0,0-0.1,0.1-0.1c0,0,0,0.1,0.1,0.1c0.1,0.2,0.3,0.5,0.4,0.7c0.1,0.1,0.1,0.1,0.2,0.2c0.2,0.2,0.3,0.4,0.5,0.6
		c0,0.1,0.1,0.1,0.1,0.2c0.2,0.2,0.4,0.4,0.7,0.6c0.1,0,0.1,0.1,0.2,0.1c0.2,0.2,0.4,0.3,0.6,0.4c0.1,0,0.2,0.1,0.2,0.1
		c0.2,0.1,0.5,0.3,0.7,0.4c0,0,0.1,0,0.1,0.1c0.3,0.1,0.6,0.2,0.9,0.3c0.1,0,0.2,0,0.2,0.1c0.2,0.1,0.5,0.1,0.7,0.2
		c0.1,0,0.2,0,0.3,0c0.3,0,0.7,0.1,1,0.1s0.7,0,1-0.1c0.1,0,0.2,0,0.3,0c0.2,0,0.5-0.1,0.7-0.2c0.1,0,0.2,0,0.2-0.1
		c0.3-0.1,0.6-0.2,0.9-0.3c0,0,0.1,0,0.1-0.1c0.2-0.1,0.5-0.2,0.7-0.4c0.1,0,0.2-0.1,0.2-0.1c0.2-0.1,0.4-0.3,0.6-0.4
		c0.1,0,0.1-0.1,0.2-0.1c0.2-0.2,0.5-0.4,0.7-0.6c0,0,0.1-0.1,0.1-0.2c0.2-0.2,0.3-0.4,0.5-0.6c0.1-0.1,0.1-0.1,0.2-0.2
		c0.2-0.2,0.3-0.4,0.4-0.7c0,0,0-0.1,0.1-0.1c0,0,0,0.1,0.1,0.1c0.1,0.2,0.3,0.5,0.4,0.7c0.1,0.1,0.1,0.1,0.2,0.2
		c0.2,0.2,0.3,0.4,0.5,0.6c0,0.1,0.1,0.1,0.1,0.2c0.2,0.2,0.4,0.4,0.7,0.6c0.1,0,0.1,0.1,0.2,0.1c0.2,0.2,0.4,0.3,0.6,0.4
		c0.1,0,0.2,0.1,0.2,0.1c0.2,0.1,0.5,0.3,0.7,0.4c0,0,0.1,0,0.1,0.1c0.3,0.1,0.6,0.2,0.9,0.3c0.1,0,0.2,0,0.2,0.1
		c0.2,0.1,0.5,0.1,0.7,0.2c0.1,0,0.2,0,0.3,0c0.3,0,0.7,0.1,1,0.1s0.7,0,1-0.1c0.1,0,0.2,0,0.3,0c0.2,0,0.5-0.1,0.7-0.2
		c0.1,0,0.2,0,0.2-0.1c0.3-0.1,0.6-0.2,0.9-0.3c0,0,0.1,0,0.1-0.1c0.2-0.1,0.5-0.2,0.7-0.4c0.1,0,0.2-0.1,0.2-0.1
		c0.2-0.1,0.4-0.3,0.6-0.4c0.1,0,0.1-0.1,0.2-0.1c0.2-0.2,0.5-0.4,0.7-0.6c0,0,0.1-0.1,0.1-0.2c0.2-0.2,0.3-0.4,0.5-0.6
		c0.1-0.1,0.1-0.1,0.2-0.2c0.2-0.2,0.3-0.4,0.4-0.7c0,0,0-0.1,0.1-0.1c0,0,0,0.1,0.1,0.1c0.1,0.2,0.3,0.5,0.4,0.7
		c0.1,0.1,0.1,0.1,0.2,0.2c0.2,0.2,0.3,0.4,0.5,0.6c0,0.1,0.1,0.1,0.1,0.2c0.2,0.2,0.4,0.4,0.7,0.6c0.1,0,0.1,0.1,0.2,0.1
		c0.2,0.2,0.4,0.3,0.6,0.4c0.1,0,0.2,0.1,0.2,0.1c0.2,0.1,0.5,0.3,0.7,0.4c0,0,0.1,0,0.1,0.1c0.3,0.1,0.6,0.2,0.9,0.3
		c0.1,0,0.2,0,0.2,0.1c0.2,0.1,0.5,0.1,0.7,0.2c0.1,0,0.2,0,0.3,0c0.3,0,0.7,0.1,1,0.1c0.3,0,0.5,0,0.8,0c0.1,0,0.1,0,0.2,0
		c0.2,0,0.4-0.1,0.6-0.1c0.1,0,0.1,0,0.2,0c0.2,0,0.4-0.1,0.6-0.2c0,0,0.1,0,0.1,0c0.2-0.1,0.5-0.2,0.7-0.2c0,0,0,0,0,0
		c0.7-0.3,1.3-0.7,1.9-1.1V58z"/>
	<path class="st0" d="M49.5,43c-0.6,0-1,0.4-1,1v3c0,0.6,0.4,1,1,1s1-0.4,1-1v-3C50.5,43.4,50.1,43,49.5,43z"/>
	<path class="st0" d="M18.5,39c0.3,0,0.5-0.1,0.7-0.3l4-4c0.4-0.4,0.4-1,0-1.4s-1-0.4-1.4,0l-4,4c-0.4,0.4-0.4,1,0,1.4
		C18,38.9,18.3,39,18.5,39z"/>
	<path class="st0" d="M18.5,44c0.3,0,0.5-0.1,0.7-0.3l2-2c0.4-0.4,0.4-1,0-1.4s-1-0.4-1.4,0l-2,2c-0.4,0.4-0.4,1,0,1.4
		C18,43.9,18.3,44,18.5,44z"/>
	<path class="st0" d="M21.8,38.3c-0.2,0.2-0.3,0.5-0.3,0.7s0.1,0.5,0.3,0.7c0.2,0.2,0.4,0.3,0.7,0.3c0.3,0,0.5-0.1,0.7-0.3
		c0.2-0.2,0.3-0.5,0.3-0.7s-0.1-0.5-0.3-0.7C22.9,37.9,22.2,37.9,21.8,38.3z"/>
	<path class="st0" d="M23.8,37.7c0.2,0.2,0.5,0.3,0.7,0.3s0.5-0.1,0.7-0.3l3-3c0.4-0.4,0.4-1,0-1.4s-1-0.4-1.4,0l-3,3
		C23.4,36.7,23.4,37.3,23.8,37.7z"/>
	<path class="st0" d="M18.5,49c0.3,0,0.5-0.1,0.7-0.3l9-9c0.4-0.4,0.4-1,0-1.4s-1-0.4-1.4,0l-9,9c-0.4,0.4-0.4,1,0,1.4
		C18,48.9,18.3,49,18.5,49z"/>
	<path class="st0" d="M28.8,37.7c0.2,0.2,0.5,0.3,0.7,0.3s0.5-0.1,0.7-0.3c0.2-0.2,0.3-0.5,0.3-0.7s-0.1-0.5-0.3-0.7
		c-0.4-0.4-1-0.4-1.4,0c-0.2,0.2-0.3,0.5-0.3,0.7S28.6,37.5,28.8,37.7z"/>
</g>
</svg>
