<?xml version="1.0" encoding="utf-8"?>
<!-- Generator: Adobe Illustrator 24.0.1, SVG Export Plug-In . SVG Version: 6.00 Build 0)  -->
<svg version="1.1" id="Capa_1" xmlns="http://www.w3.org/2000/svg" xmlns:xlink="http://www.w3.org/1999/xlink" x="0px" y="0px"
	 viewBox="0 0 512 512" style="enable-background:new 0 0 512 512;" xml:space="preserve">
<style type="text/css">
	.st0{fill:#1D1D1D;}
</style>
<g>
	<g>
		<path class="st0" d="M76.8,34.1H42.7c-4.7,0-8.5,3.8-8.5,8.5v34.1c0,4.7,3.8,8.5,8.5,8.5h34.1c4.7,0,8.5-3.8,8.5-8.5V42.7
			C85.3,38,81.5,34.1,76.8,34.1z M68.3,68.3H51.2V51.2h17.1V68.3z"/>
	</g>
</g>
<g>
	<g>
		<path class="st0" d="M145.1,34.1h-34.1c-4.7,0-8.5,3.8-8.5,8.5v34.1c0,4.7,3.8,8.5,8.5,8.5h34.1c4.7,0,8.5-3.8,8.5-8.5V42.7
			C153.6,38,149.8,34.1,145.1,34.1z M136.5,68.3h-17.1V51.2h17.1V68.3z"/>
	</g>
</g>
<g>
	<g>
		<path class="st0" d="M213.3,34.1h-34.1c-4.7,0-8.5,3.8-8.5,8.5v34.1c0,4.7,3.8,8.5,8.5,8.5h34.1c4.7,0,8.5-3.8,8.5-8.5V42.7
			C221.9,38,218,34.1,213.3,34.1z M204.8,68.3h-17.1V51.2h17.1V68.3z"/>
	</g>
</g>
<g>
	<g>
		<path class="st0" d="M422.4,0h-384C17.2,0,0,17.2,0,38.4v72.5c0,4.7,3.8,8.5,8.5,8.5h443.7c4.7,0,8.5-3.8,8.5-8.5V38.4
			C460.8,17.2,443.6,0,422.4,0z M443.7,102.4H17.1v-64c0-11.8,9.6-21.3,21.3-21.3h384c11.8,0,21.3,9.6,21.3,21.3V102.4z"/>
	</g>
</g>
<g>
	<g>
		<path class="st0" d="M231,281.6h-43.3c-4.7,0-8.5,3.8-8.5,8.5s3.8,8.5,8.5,8.5H231c4.7,0,8.5-3.8,8.5-8.5S235.7,281.6,231,281.6z"
			/>
	</g>
</g>
<g>
	<g>
		<path class="st0" d="M231,315.7h-43.3c-4.7,0-8.5,3.8-8.5,8.5s3.8,8.5,8.5,8.5H231c4.7,0,8.5-3.8,8.5-8.5S235.7,315.7,231,315.7z"
			/>
	</g>
</g>
<g>
	<g>
		<path class="st0" d="M145.1,170.7H59.7c-4.7,0-8.5,3.8-8.5,8.5v51.2c0,4.7,3.8,8.5,8.5,8.5h85.3c4.7,0,8.5-3.8,8.5-8.5v-51.2
			C153.6,174.5,149.8,170.7,145.1,170.7z M136.5,221.9H68.3v-34.1h68.3L136.5,221.9L136.5,221.9z"/>
	</g>
</g>
<g>
	<g>
		<path class="st0" d="M273.1,162.1h-85.3c-4.7,0-8.5,3.8-8.5,8.5s3.8,8.5,8.5,8.5h85.3c4.7,0,8.5-3.8,8.5-8.5
			S277.8,162.1,273.1,162.1z"/>
	</g>
</g>
<g>
	<g>
		<path class="st0" d="M276.6,196.3h-88.9c-4.7,0-8.5,3.8-8.5,8.5s3.8,8.5,8.5,8.5h88.9c4.7,0,8.5-3.8,8.5-8.5
			S281.3,196.3,276.6,196.3z"/>
	</g>
</g>
<g>
	<g>
		<path class="st0" d="M276.6,401.1h-88.8c-4.7,0-8.5,3.8-8.5,8.5s3.8,8.5,8.5,8.5h88.8c4.7,0,8.5-3.8,8.5-8.5
			S281.3,401.1,276.6,401.1z"/>
	</g>
</g>
<g>
	<g>
		<path class="st0" d="M366.9,435.2H187.7c-4.7,0-8.5,3.8-8.5,8.5s3.8,8.5,8.5,8.5h179.2c4.7,0,8.5-3.8,8.5-8.5
			S371.6,435.2,366.9,435.2z"/>
	</g>
</g>
<g>
	<g>
		<path class="st0" d="M128,136.5H76.8c-4.7,0-8.5,3.8-8.5,8.5v34.1c0,4.7,3.8,8.5,8.5,8.5H128c4.7,0,8.5-3.8,8.5-8.5v-34.1
			C136.5,140.4,132.7,136.5,128,136.5z M119.5,170.7H85.3v-17.1h34.1L119.5,170.7L119.5,170.7z"/>
	</g>
</g>
<g>
	<g>
		<path class="st0" d="M145.1,290.1H59.7c-4.7,0-8.5,3.8-8.5,8.5v51.2c0,4.7,3.8,8.5,8.5,8.5h85.3c4.7,0,8.5-3.8,8.5-8.5v-51.2
			C153.6,294,149.8,290.1,145.1,290.1z M136.5,341.3H68.3v-34.1h68.3L136.5,341.3L136.5,341.3z"/>
	</g>
</g>
<g>
	<g>
		<path class="st0" d="M128,256H76.8c-4.7,0-8.5,3.8-8.5,8.5v34.1c0,4.7,3.8,8.5,8.5,8.5H128c4.7,0,8.5-3.8,8.5-8.5v-34.1
			C136.5,259.8,132.7,256,128,256z M119.5,290.1H85.3v-17.1h34.1L119.5,290.1L119.5,290.1z"/>
	</g>
</g>
<g>
	<g>
		<path class="st0" d="M145.1,409.6H59.7c-4.7,0-8.5,3.8-8.5,8.5v51.2c0,4.7,3.8,8.5,8.5,8.5h85.3c4.7,0,8.5-3.8,8.5-8.5v-51.2
			C153.6,413.4,149.8,409.6,145.1,409.6z M136.5,460.8H68.3v-34.1h68.3L136.5,460.8L136.5,460.8z"/>
	</g>
</g>
<g>
	<g>
		<path class="st0" d="M128,375.5H76.8c-4.7,0-8.5,3.8-8.5,8.5v34.1c0,4.7,3.8,8.5,8.5,8.5H128c4.7,0,8.5-3.8,8.5-8.5V384
			C136.5,379.3,132.7,375.5,128,375.5z M119.5,409.6H85.3v-17.1h34.1L119.5,409.6L119.5,409.6z"/>
	</g>
</g>
<g>
	<g>
		<path class="st0" d="M366.9,196.3C305.8,196.3,256,246,256,307.2c0,4.7,3.8,8.5,8.5,8.5s8.5-3.8,8.5-8.5
			c0-51.8,42.1-93.9,93.9-93.9s93.9,42.1,93.9,93.9s-42.1,93.9-93.9,93.9c-4.7,0-8.5,3.8-8.5,8.5s3.8,8.5,8.5,8.5
			c61.2,0,110.9-49.8,110.9-110.9S428.1,196.3,366.9,196.3z"/>
	</g>
</g>
<g>
	<g>
		<path class="st0" d="M384,298.7h-34.1c-9.4,0-17.1-7.7-17.1-17.1c0-9.4,7.7-17.1,17.1-17.1h51.2c4.7,0,8.5-3.8,8.5-8.5
			s-3.8-8.5-8.5-8.5h-51.2c-18.8,0-34.1,15.3-34.1,34.1c0,18.8,15.3,34.1,34.1,34.1H384c9.4,0,17.1,7.7,17.1,17.1
			c0,9.4-7.7,17.1-17.1,17.1h-51.2c-4.7,0-8.5,3.8-8.5,8.5s3.8,8.5,8.5,8.5H384c18.8,0,34.1-15.3,34.1-34.1
			C418.1,314,402.8,298.7,384,298.7z"/>
	</g>
</g>
<g>
	<g>
		<path class="st0" d="M366.9,230.4c-4.7,0-8.5,3.8-8.5,8.5v136.5c0,4.7,3.8,8.5,8.5,8.5s8.5-3.8,8.5-8.5V238.9
			C375.5,234.2,371.6,230.4,366.9,230.4z"/>
	</g>
</g>
<g>
	<g>
		<path class="st0" d="M366.9,162.1c-80,0-145.1,65.1-145.1,145.1s65.1,145.1,145.1,145.1S512,387.2,512,307.2
			S446.9,162.1,366.9,162.1z M366.9,435.2c-70.6,0-128-57.4-128-128s57.4-128,128-128s128,57.4,128,128S437.5,435.2,366.9,435.2z"/>
	</g>
</g>
<g>
	<g>
		<path class="st0" d="M460.8,204.8V38.4c0-21.2-17.2-38.4-38.4-38.4h-384C17.2,0,0,17.2,0,38.4v435.2C0,494.8,17.2,512,38.4,512
			h384c21.2,0,38.4-17.2,38.4-38.4v-64h-17.1v64c0,11.8-9.6,21.3-21.3,21.3h-384c-11.8,0-21.3-9.6-21.3-21.3V38.4
			c0-11.8,9.6-21.3,21.3-21.3h384c11.8,0,21.3,9.6,21.3,21.3v166.4L460.8,204.8L460.8,204.8z"/>
	</g>
</g>
</svg>
