<svg xmlns="http://www.w3.org/2000/svg" xmlns:xlink="http://www.w3.org/1999/xlink" width="248.68" height="49.265" viewBox="0 0 248.68 49.265">
  <defs>
    <clipPath id="clip-path">
      <path id="Path_2" data-name="Path 2" d="M26.08,11.454V6.549A6.547,6.547,0,0,1,32.619.01h4.905a2.18,2.18,0,0,1,0,4.359H32.619a2.182,2.182,0,0,0-2.18,2.18v4.905a2.18,2.18,0,1,1-4.359,0ZM37.524,44.916H32.619a2.182,2.182,0,0,1-2.18-2.18V37.831a2.18,2.18,0,0,0-4.359,0v4.905a6.547,6.547,0,0,0,6.539,6.539h4.905a2.18,2.18,0,0,0,0-4.359ZM68.8.01H63.9a2.18,2.18,0,1,0,0,4.359H68.8a2.182,2.182,0,0,1,2.18,2.18v4.905a2.18,2.18,0,1,0,4.359,0V6.549A6.545,6.545,0,0,0,68.8.01Zm4.359,35.642a2.182,2.182,0,0,0-2.18,2.18v4.905a2.182,2.182,0,0,1-2.18,2.18H63.9a2.18,2.18,0,1,0,0,4.359H68.8a6.547,6.547,0,0,0,6.539-6.539V37.831A2.182,2.182,0,0,0,73.163,35.652Z" transform="translate(-26.08 -0.01)"/>
    </clipPath>
    <linearGradient id="linear-gradient" x1="0.5" y1="1" x2="0.5" gradientUnits="objectBoundingBox">
      <stop offset="0" stop-color="#e7004c" stop-opacity="0"/>
      <stop offset="1" stop-color="#e7004c" stop-opacity="0.898"/>
    </linearGradient>
  </defs>
  <g id="XMLID_2_" transform="translate(-26.08 -0.01)">
    <g id="XMLID_29_" transform="translate(26.08 0.01)">
      <g id="XMLID_35_" transform="translate(0)" clip-path="url(#clip-path)">
        <rect id="XMLID_37_" width="64.815" height="49.268" transform="translate(-7.777 -0.003)" fill="#ff5100"/>
        <rect id="XMLID_36_" width="64.815" height="49.268" transform="translate(-7.777 -0.003)" fill="url(#linear-gradient)"/>
      </g>
    </g>
    <path id="XMLID_28_" d="M82.317,41.785H71.091a3.256,3.256,0,0,1-3.244-3.474,3.328,3.328,0,0,1,3.372-3.027H85.967a2.362,2.362,0,1,0,0-4.723h-6.9v-.4a2.362,2.362,0,0,0-4.723,0v.4h-3.25A8.012,8.012,0,0,0,63.117,38.4,7.808,7.808,0,0,0,65.4,44.03a8.313,8.313,0,0,0,5.886,2.481H82.317a3.256,3.256,0,0,1,3.244,3.474,3.328,3.328,0,0,1-3.372,3.027H67.441a2.362,2.362,0,0,0,0,4.723h6.9v.4a2.362,2.362,0,0,0,4.723,0v-.4h3.05A8.307,8.307,0,0,0,88,55.253a7.8,7.8,0,0,0,2.287-5.63A8.01,8.01,0,0,0,82.317,41.785Z" transform="translate(-25.993 -19.504)" fill="#1d1d1b"/>
    <g id="XMLID_3_" transform="translate(90.421 11.383)">
      <path id="XMLID_24_" d="M261.829,53.005a6.369,6.369,0,0,0-3.11-2.186,6.319,6.319,0,0,0,2.63-2.072,6.6,6.6,0,0,0-1.264-8.781,10.543,10.543,0,0,0-6.521-1.816h-9.217a2.525,2.525,0,0,0-1.816.638,2.365,2.365,0,0,0-.671,1.783V61.96a2.374,2.374,0,0,0,.668,1.783,2.528,2.528,0,0,0,1.819.638h9.589a10.7,10.7,0,0,0,6.709-1.908,6.4,6.4,0,0,0,2.469-5.317,6.751,6.751,0,0,0-1.285-4.151Zm-14.924-3.96V42.181h5.877a6.24,6.24,0,0,1,3.611.847,2.918,2.918,0,0,1,1.151,2.567c0,2.32-1.557,3.45-4.762,3.45Zm11.307,7.7a3.225,3.225,0,0,1-1.118,2.716,6.1,6.1,0,0,1-3.68.88h-6.506V53.077h6.506a5.923,5.923,0,0,1,3.659.915A3.313,3.313,0,0,1,258.212,56.748Z" transform="translate(-241.86 -38.15)" fill="#1d1d1b"/>
      <path id="XMLID_21_" d="M337.777,65.155c-1.255-1.264-3.194-1.905-5.761-1.905a16.455,16.455,0,0,0-3.59.409,12.489,12.489,0,0,0-3.152,1.118,3.167,3.167,0,0,0-1.121.918,2.054,2.054,0,0,0-.349,1.187,1.984,1.984,0,0,0,.474,1.369,1.58,1.58,0,0,0,1.231.537,3.8,3.8,0,0,0,1.479-.489c1.008-.388,1.89-.689,2.624-.895a7.969,7.969,0,0,1,2.144-.3,3.192,3.192,0,0,1,2.394.769,3.564,3.564,0,0,1,.731,2.5v.662h-.745a30.84,30.84,0,0,0-6.4.519,6.358,6.358,0,0,0-3.423,1.709A4.689,4.689,0,0,0,323.25,76.5a5.237,5.237,0,0,0,.886,2.961,6.05,6.05,0,0,0,2.412,2.081,7.6,7.6,0,0,0,3.387.751,6.25,6.25,0,0,0,3.235-.832,4.991,4.991,0,0,0,1.712-1.661v.075a2.221,2.221,0,0,0,.671,1.673,2.375,2.375,0,0,0,1.706.638,2.452,2.452,0,0,0,1.762-.62,2.237,2.237,0,0,0,.65-1.691V70.916c0-2.558-.635-4.5-1.893-5.761Zm-2.9,8.656V74.4a4.241,4.241,0,0,1-1.121,3.047h0a3.83,3.83,0,0,1-2.9,1.172,2.814,2.814,0,0,1-1.941-.707,2.278,2.278,0,0,1-.775-1.789,1.764,1.764,0,0,1,.537-1.372,3.631,3.631,0,0,1,1.876-.725,25.735,25.735,0,0,1,3.838-.218h.483Z" transform="translate(-298.981 -55.766)" fill="#1d1d1b"/>
      <path id="XMLID_20_" d="M404.909,63.915a2.214,2.214,0,0,0-1.655-.447l-.519.036a6.667,6.667,0,0,0-3.188,1.02,5.5,5.5,0,0,0-1.819,1.89V65.7a2.121,2.121,0,0,0-.656-1.658,2.436,2.436,0,0,0-1.682-.578,2.607,2.607,0,0,0-1.735.593,2.136,2.136,0,0,0-.716,1.718v14.2a2.225,2.225,0,0,0,.713,1.768,2.6,2.6,0,0,0,1.774.614,2.679,2.679,0,0,0,1.789-.611,2.2,2.2,0,0,0,.734-1.771v-7.7a4.6,4.6,0,0,1,.981-3,4.382,4.382,0,0,1,3.092-1.4l1.118-.11A3.151,3.151,0,0,0,405,67.084a2.157,2.157,0,0,0,.537-1.6,1.976,1.976,0,0,0-.623-1.571Z" transform="translate(-347.891 -55.911)" fill="#1d1d1b"/>
      <path id="XMLID_17_" d="M452.563,65.155c-1.255-1.264-3.194-1.905-5.761-1.905a16.455,16.455,0,0,0-3.59.409,12.489,12.489,0,0,0-3.152,1.118,3.208,3.208,0,0,0-1.124.918,2.055,2.055,0,0,0-.349,1.187,1.984,1.984,0,0,0,.474,1.369,1.58,1.58,0,0,0,1.232.537,3.8,3.8,0,0,0,1.479-.489c1.008-.388,1.891-.689,2.624-.895a7.969,7.969,0,0,1,2.144-.3,3.192,3.192,0,0,1,2.394.769,3.579,3.579,0,0,1,.731,2.5v.662h-.745a30.84,30.84,0,0,0-6.4.519,6.358,6.358,0,0,0-3.423,1.709,4.69,4.69,0,0,0-1.07,3.241,5.237,5.237,0,0,0,.886,2.961,6.05,6.05,0,0,0,2.412,2.081,7.607,7.607,0,0,0,3.39.751,6.25,6.25,0,0,0,3.235-.832,4.991,4.991,0,0,0,1.712-1.661v.075a2.221,2.221,0,0,0,.671,1.673,2.375,2.375,0,0,0,1.706.638,2.452,2.452,0,0,0,1.762-.62,2.237,2.237,0,0,0,.65-1.691V70.916c0-2.558-.635-4.5-1.89-5.761Zm-2.9,8.656V74.4a4.245,4.245,0,0,1-1.121,3.047,3.832,3.832,0,0,1-2.9,1.172,2.813,2.813,0,0,1-1.941-.707,2.278,2.278,0,0,1-.775-1.789,1.764,1.764,0,0,1,.537-1.372,3.631,3.631,0,0,1,1.876-.725,25.734,25.734,0,0,1,3.838-.218h.486Z" transform="translate(-379.536 -55.766)" fill="#1d1d1b"/>
      <path id="XMLID_16_" d="M511.062,66.428l-1-.072c-1.586-.116-2.359-1-2.359-2.716V55.494h2.976a2.565,2.565,0,0,0,1.658-.48,1.981,1.981,0,0,0,0-2.851,2.565,2.565,0,0,0-1.658-.48H507.7v-3.2a2.233,2.233,0,0,0-.692-1.712,2.548,2.548,0,0,0-1.8-.635,2.6,2.6,0,0,0-1.834.635,2.231,2.231,0,0,0-.689,1.712V51.68h-1.676a2.566,2.566,0,0,0-1.658.48,1.981,1.981,0,0,0,0,2.851,2.566,2.566,0,0,0,1.658.48h1.676v7.815c0,4.2,2.159,6.485,6.414,6.787l1.008.075q.183.009.358.009a3.38,3.38,0,0,0,1.81-.423,1.665,1.665,0,0,0,.808-1.494C513.089,67.481,512.738,66.53,511.062,66.428Z" transform="translate(-422.15 -43.758)" fill="#1d1d1b"/>
      <path id="XMLID_13_" d="M564.807,64.4a11.243,11.243,0,0,0-9.947,0,8.174,8.174,0,0,0-3.325,3.319,10.342,10.342,0,0,0-1.175,5.021,10.473,10.473,0,0,0,1.175,5.039,8.135,8.135,0,0,0,3.325,3.34,11.243,11.243,0,0,0,9.947,0,8.006,8.006,0,0,0,3.307-3.34,11.541,11.541,0,0,0,0-10.061A8.06,8.06,0,0,0,564.807,64.4Zm-5.012,13.958a3.99,3.99,0,0,1-3.277-1.4,6.6,6.6,0,0,1-1.148-4.213,6.561,6.561,0,0,1,1.166-4.2,4.023,4.023,0,0,1,3.3-1.419,3.972,3.972,0,0,1,3.277,1.416,6.617,6.617,0,0,1,1.148,4.2,6.617,6.617,0,0,1-1.148,4.213h0A4.035,4.035,0,0,1,559.794,78.358Z" transform="translate(-458.371 -55.759)" fill="#1d1d1b"/>
      <path id="XMLID_12_" d="M636.856,76.631a2.337,2.337,0,0,0-.886.179,7.394,7.394,0,0,0-.984.5,13.7,13.7,0,0,1-1.6.742,4.464,4.464,0,0,1-1.589.262,4.21,4.21,0,0,1-3.408-1.419,6.271,6.271,0,0,1-1.2-4.121,6.349,6.349,0,0,1,1.2-4.157A4.214,4.214,0,0,1,631.8,67.2a4.8,4.8,0,0,1,1.646.262,10.028,10.028,0,0,1,1.533.739,7.827,7.827,0,0,0,.912.45,2.433,2.433,0,0,0,.924.2,1.426,1.426,0,0,0,1.166-.564,2.221,2.221,0,0,0,.429-1.416,2.452,2.452,0,0,0-1.276-2.1,9.9,9.9,0,0,0-2.63-1.121,11.261,11.261,0,0,0-2.967-.411,10.106,10.106,0,0,0-4.956,1.2,8.424,8.424,0,0,0-3.36,3.393,11.289,11.289,0,0,0-.057,9.986,8.007,8.007,0,0,0,3.25,3.3,9.957,9.957,0,0,0,4.863,1.16,11.828,11.828,0,0,0,3.17-.429,9.962,9.962,0,0,0,2.719-1.175,2.668,2.668,0,0,0,.975-.889,2.229,2.229,0,0,0,.307-1.178,2.206,2.206,0,0,0-.447-1.4A1.44,1.44,0,0,0,636.856,76.631Z" transform="translate(-508.671 -55.759)" fill="#1d1d1b"/>
      <path id="XMLID_9_" d="M698.37,65.155c-1.255-1.264-3.194-1.905-5.761-1.905a16.455,16.455,0,0,0-3.59.409,12.489,12.489,0,0,0-3.152,1.118,3.167,3.167,0,0,0-1.121.918,2.055,2.055,0,0,0-.349,1.187,1.984,1.984,0,0,0,.474,1.369,1.58,1.58,0,0,0,1.231.537,3.8,3.8,0,0,0,1.479-.489c1.008-.388,1.89-.689,2.624-.895a7.969,7.969,0,0,1,2.144-.3,3.192,3.192,0,0,1,2.394.769,3.579,3.579,0,0,1,.731,2.5v.662h-.745a30.84,30.84,0,0,0-6.4.519,6.358,6.358,0,0,0-3.423,1.709,4.69,4.69,0,0,0-1.07,3.241,5.237,5.237,0,0,0,.886,2.961,6.049,6.049,0,0,0,2.412,2.081,7.607,7.607,0,0,0,3.39.751,6.25,6.25,0,0,0,3.235-.832,4.991,4.991,0,0,0,1.712-1.661v.075a2.221,2.221,0,0,0,.671,1.673,2.375,2.375,0,0,0,1.706.638,2.452,2.452,0,0,0,1.762-.62,2.237,2.237,0,0,0,.65-1.691V70.916c0-2.558-.635-4.5-1.893-5.761Zm-2.9,8.656V74.4a4.245,4.245,0,0,1-1.121,3.047,3.832,3.832,0,0,1-2.9,1.172,2.813,2.813,0,0,1-1.941-.707,2.278,2.278,0,0,1-.775-1.789,1.764,1.764,0,0,1,.537-1.372,3.631,3.631,0,0,1,1.876-.725,25.734,25.734,0,0,1,3.838-.218h.486Z" transform="translate(-552.05 -55.766)" fill="#1d1d1b"/>
      <path id="XMLID_8_" d="M765.509,63.913a2.2,2.2,0,0,0-1.655-.447l-.519.036a6.667,6.667,0,0,0-3.188,1.02,5.5,5.5,0,0,0-1.819,1.89V65.7a2.121,2.121,0,0,0-.656-1.658,2.436,2.436,0,0,0-1.682-.578,2.607,2.607,0,0,0-1.735.593,2.136,2.136,0,0,0-.716,1.718v14.2a2.225,2.225,0,0,0,.713,1.768,2.6,2.6,0,0,0,1.774.614,2.679,2.679,0,0,0,1.789-.611,2.2,2.2,0,0,0,.734-1.771V72.271a4.6,4.6,0,0,1,.981-3,4.382,4.382,0,0,1,3.092-1.4l1.118-.11a3.151,3.151,0,0,0,1.855-.674,2.157,2.157,0,0,0,.537-1.6,1.976,1.976,0,0,0-.623-1.571Z" transform="translate(-600.967 -55.909)" fill="#1d1d1b"/>
      <path id="XMLID_4_" d="M814.414,67.722a8.05,8.05,0,0,0-3.307-3.322,11.243,11.243,0,0,0-9.947,0,8.174,8.174,0,0,0-3.325,3.319,11.357,11.357,0,0,0,0,10.061,8.135,8.135,0,0,0,3.325,3.34,11.243,11.243,0,0,0,9.947,0,8.006,8.006,0,0,0,3.307-3.34,10.6,10.6,0,0,0,1.154-5.039A10.469,10.469,0,0,0,814.414,67.722Zm-8.319,10.636a3.991,3.991,0,0,1-3.277-1.4,6.6,6.6,0,0,1-1.148-4.213,6.561,6.561,0,0,1,1.166-4.2,4.023,4.023,0,0,1,3.3-1.419,3.972,3.972,0,0,1,3.277,1.416,6.617,6.617,0,0,1,1.148,4.2,6.616,6.616,0,0,1-1.148,4.213h0A4.031,4.031,0,0,1,806.094,78.358Z" transform="translate(-631.229 -55.759)" fill="#1d1d1b"/>
    </g>
  </g>
</svg>
