<?xml version="1.0" encoding="utf-8"?>
<!-- Generator: Adobe Illustrator 23.1.1, SVG Export Plug-In . SVG Version: 6.00 Build 0)  -->
<svg version="1.1" xmlns="http://www.w3.org/2000/svg" xmlns:xlink="http://www.w3.org/1999/xlink" x="0px" y="0px"
	 viewBox="0 0 66.6 66.6" style="enable-background:new 0 0 66.6 66.6;" xml:space="preserve">
<style type="text/css">
	.st0{fill:#FFFFFF;}
</style>
<g id="recuadro">
	<path class="st0" d="M8.7,20.1v-4.9c0-3.6,2.9-6.5,6.5-6.5h4.9c1.2,0,2.2,1,2.1,2.2c0,1.2-1,2.1-2.1,2.1h-4.9C14,13,13,14,13,15.2
		v4.9c0,1.2-0.9,2.2-2.1,2.2C9.7,22.4,8.7,21.4,8.7,20.1C8.7,20.2,8.7,20.1,8.7,20.1z M20.1,53.6h-4.9c-1.2,0-2.2-1-2.2-2.2v-4.9
		c0-1.2-1-2.2-2.2-2.1c-1.2,0-2.1,1-2.1,2.1v4.9c0,3.6,2.9,6.5,6.5,6.5h4.9c1.2,0,2.2-1,2.1-2.2C22.2,54.5,21.3,53.6,20.1,53.6z
		 M51.4,8.7h-4.9c-1.2,0-2.2,0.9-2.2,2.1c0,1.2,0.9,2.2,2.1,2.2c0,0,0.1,0,0.1,0h4.9c1.2,0,2.2,1,2.2,2.2v4.9c0,1.2,0.9,2.2,2.1,2.2
		c1.2,0,2.2-0.9,2.2-2.1c0,0,0-0.1,0-0.1v-4.9C57.9,11.6,55,8.7,51.4,8.7z M55.7,44.3c-1.2,0-2.2,1-2.2,2.2v4.9c0,1.2-1,2.2-2.2,2.2
		h-4.9c-1.2,0-2.2,0.9-2.2,2.1s0.9,2.2,2.1,2.2c0,0,0.1,0,0.1,0h4.9c3.6,0,6.5-2.9,6.5-6.5v-4.9C57.9,45.3,56.9,44.3,55.7,44.3
		L55.7,44.3z"/>
</g>
<g id="letra">
	<path id="XMLID_28_" class="st0" d="M38.9,30.9H27.7c-1.8,0-3.3-1.5-3.3-3.3c0-0.1,0-0.1,0-0.2c0.2-1.7,1.6-3.1,3.4-3h14.7
		c1.3,0,2.4-1,2.4-2.3c0-1.3-1-2.4-2.3-2.4c0,0-0.1,0-0.1,0h-6.9v-0.4c0-1.3-1.1-2.3-2.4-2.3c-1.3,0-2.3,1-2.3,2.3v0.4h-3.2
		c-4.3,0-7.9,3.5-8,7.8c0,2.1,0.8,4.1,2.3,5.6c1.6,1.6,3.7,2.5,5.9,2.5h11c1.8,0,3.3,1.5,3.3,3.3c0,0.1,0,0.1,0,0.2
		c-0.2,1.7-1.6,3.1-3.4,3H24c-1.3,0-2.3,1.1-2.3,2.4c0,1.3,1,2.3,2.3,2.3h6.9v0.4c0,1.3,1.1,2.3,2.4,2.3c1.3,0,2.3-1,2.3-2.3v-0.4
		h3.1c2.2,0,4.3-0.9,5.9-2.5c1.5-1.5,2.3-3.5,2.3-5.6C46.8,34.4,43.2,31,38.9,30.9z"/>
</g>
</svg>
