<svg xmlns="http://www.w3.org/2000/svg" xmlns:xlink="http://www.w3.org/1999/xlink" width="49.262" height="49.265" viewBox="0 0 49.262 49.265">
  <defs>
    <clipPath id="clip-path">
      <path id="Path_2" data-name="Path 2" d="M26.08,11.454V6.549A6.547,6.547,0,0,1,32.619.01h4.905a2.18,2.18,0,0,1,0,4.359H32.619a2.182,2.182,0,0,0-2.18,2.18v4.905a2.18,2.18,0,1,1-4.359,0ZM37.524,44.916H32.619a2.182,2.182,0,0,1-2.18-2.18V37.831a2.18,2.18,0,0,0-4.359,0v4.905a6.547,6.547,0,0,0,6.539,6.539h4.905a2.18,2.18,0,0,0,0-4.359ZM68.8.01H63.9a2.18,2.18,0,1,0,0,4.359H68.8a2.182,2.182,0,0,1,2.18,2.18v4.905a2.18,2.18,0,1,0,4.359,0V6.549A6.545,6.545,0,0,0,68.8.01Zm4.359,35.642a2.182,2.182,0,0,0-2.18,2.18v4.905a2.182,2.182,0,0,1-2.18,2.18H63.9a2.18,2.18,0,1,0,0,4.359H68.8a6.547,6.547,0,0,0,6.539-6.539V37.831A2.182,2.182,0,0,0,73.163,35.652Z" transform="translate(-26.08 -0.01)" fill="#fff"/>
    </clipPath>
  </defs>
  <g id="Group_19" data-name="Group 19" transform="translate(181 143)">
    <g id="XMLID_29_" transform="translate(-181 -143)">
      <g id="XMLID_35_" transform="translate(0)" clip-path="url(#clip-path)">
        <rect id="XMLID_37_" width="64.815" height="49.268" transform="translate(-7.777 -0.003)" fill="#fff"/>
        <rect id="XMLID_36_" width="64.815" height="49.268" transform="translate(-7.777 -0.003)" fill="#fff"/>
      </g>
    </g>
    <path id="XMLID_28_" d="M82.317,41.785H71.091a3.256,3.256,0,0,1-3.244-3.474,3.328,3.328,0,0,1,3.372-3.027H85.967a2.362,2.362,0,1,0,0-4.723h-6.9v-.4a2.362,2.362,0,0,0-4.723,0v.4h-3.25A8.012,8.012,0,0,0,63.117,38.4,7.808,7.808,0,0,0,65.4,44.03a8.313,8.313,0,0,0,5.886,2.481H82.317a3.256,3.256,0,0,1,3.244,3.474,3.328,3.328,0,0,1-3.372,3.027H67.441a2.362,2.362,0,0,0,0,4.723h6.9v.4a2.362,2.362,0,0,0,4.723,0v-.4h3.05A8.307,8.307,0,0,0,88,55.253a7.8,7.8,0,0,0,2.287-5.63A8.01,8.01,0,0,0,82.317,41.785Z" transform="translate(-233.073 -162.514)" fill="#fff"/>
  </g>
</svg>
